<?xml version='1.0' encoding='utf-8'?>
<svg xmlns="http://www.w3.org/2000/svg" version="1.1" id="Layer_1" x="0px" y="0px" viewBox="0 0 1280 854" style="enable-background:new 0 0 1280 854;"> <style type="text/css"> .st0{fill:#FF9933;} .st1{fill:#FFFFFF;} .st2{fill:#000088;} .st3{fill:#128807;} </style> <g> <g> <path class="st0" d="M0,0h1280v284.34c-51.99,0.37-103.99,0.05-155.98,0.16c-374.68,0-749.35,0-1124.02,0V0z"/> </g> <g> <g> <path class="st1" d="M0,284.5c374.67,0,749.34,0,1124.02,0c51.99-0.11,103.99,0.21,155.98-0.16V569c-426.67,0-853.33,0-1280,0 V284.5z M626.58,313.75c-36.73,4.05-70.49,27.45-87.41,60.27c-17.62,33.1-17.16,74.96,1.19,107.66 c16.17,29.64,46.16,51.27,79.44,57.05c25.08,4.57,51.67,0.41,74.09-11.75c24.72-13.24,44.19-35.95,53.43-62.44 c8.68-24.52,8.58-52.03-0.31-76.48c-9.64-26.91-29.86-49.79-55.35-62.71C671.76,315.11,648.79,311.12,626.58,313.75z"/> </g> <path class="st1" d="M640.01,327.17c2.54,0.06,5.11,0.15,7.67,0.24c0.47,2.3,1.53,4.95,4.13,5.44c2.93,0.9,5.35-1.46,6.3-3.99 c5.15,0.87,10.19,2.3,15.13,3.99c-0.46,2.59,0.39,5.71,3.17,6.58c2.57,1.09,4.98-0.71,6.55-2.59c4.62,2.35,9.14,4.89,13.42,7.82 c-1.19,2.5-0.97,5.94,1.71,7.38c2.18,1.47,4.69,0.3,6.61-1c3.91,3.44,7.63,7.12,11.03,11.08c-1.59,1.9-2.5,4.74-0.81,6.89 c1.56,2.4,4.69,2.4,7.05,1.3c1.27,1.84,2.49,3.72,3.74,5.59c-0.72,0.85-1.42,1.71-2.1,2.59c-16.61,7.89-32.88,16.5-49.36,24.65 c-6.15,3.81-11.64,8.59-17.53,12.78c-0.64-0.86-1.26-1.72-1.88-2.57c6.82-5.7,14.64-10.38,20.25-17.41 c11.2-12.7,22.68-25.17,33.72-38.01c-14.27,12.36-28.23,25.09-42.34,37.63c-4.67,5.23-8.73,10.99-13.15,16.45 c-0.55-0.48-1.65-1.43-2.2-1.91c3.69-6.36,9.19-11.65,12.77-18.14c8.3-16.69,16.87-33.24,25.05-49.99 c-9.7,14.37-19.04,28.98-28.61,43.43c-5.17,7.11-7.52,15.72-11.27,23.57c-0.98-0.41-1.96-0.81-2.92-1.22 c2.45-6.27,5.17-12.45,7.44-18.8c4.16-18.97,7.8-38.06,12-57.02c-5.94,16.16-10.88,32.7-16.44,49.01 c-3.31,8.37-3.39,17.51-4.97,26.28c-0.79-0.1-2.37-0.28-3.16-0.37c0.73-6.96,1.93-13.88,2.32-20.86 C642.28,366.38,641.08,346.78,640.01,327.17z"/> <path class="st1" d="M632.24,327.47c2.58-0.15,5.16-0.25,7.75-0.31c-1.08,19.63-2.28,39.24-3.33,58.87 c0.4,6.97,1.61,13.88,2.32,20.83c-0.79,0.09-2.36,0.28-3.15,0.37c-1.57-8.47-1.6-17.31-4.68-25.44 c-4.65-13.98-9.22-27.99-13.88-41.97c-0.72-3.18-2.8-6.49-1.66-9.77c2.08-0.36,4.16-0.78,6.25-1.18c0.95,2.51,3.38,4.85,6.3,3.99 C630.7,332.37,631.9,329.8,632.24,327.47z"/> <path class="st1" d="M606.76,332.88c2.55-0.82,5.09-1.63,7.59-2.62c-0.33,2.32,0.6,4.45,1.2,6.64 c3.65,17.36,7.12,34.76,10.88,52.09c2.28,6.32,4.96,12.49,7.43,18.74c-0.97,0.42-1.94,0.84-2.9,1.28 c-2.97-6.44-5.31-13.17-8.58-19.45c-10.39-15.89-20.8-31.75-31.23-47.61c8.11,17.05,16.93,33.78,25.32,50.69 c3.8,6.07,8.52,11.51,12.66,17.35c-0.62,0.49-1.86,1.47-2.48,1.96c-4.59-5.57-8.65-11.59-13.59-16.86 c-14.03-12.3-27.66-25.08-41.92-37.09c12.5,14.12,25.07,28.18,37.64,42.24c5.22,4.65,10.94,8.72,16.4,13.09 c-0.65,0.85-1.29,1.71-1.93,2.57c-5.6-4.1-10.99-8.52-16.77-12.37c-16.6-8.42-33.22-16.81-49.89-25.11 c-0.9-0.73-1.58-1.67-2.32-2.53c1.25-1.86,2.48-3.73,3.74-5.57c2.36,1.08,5.52,1.09,7.07-1.33c1.67-2.15,0.75-4.96-0.81-6.86 c3.39-3.98,7.13-7.63,11.03-11.09c1.91,1.31,4.42,2.46,6.63,1c2.66-1.46,2.82-4.88,1.7-7.39c4.27-2.79,8.61-5.56,13.3-7.62 c1.77,1.28,3.53,3.33,6,2.58C606.03,339.08,607.32,335.69,606.76,332.88z"/> <path class="st1" d="M553.65,377.17c16.84,10.36,33.12,21.67,49.79,32.32c6.16,3.01,12.63,5.32,18.82,8.27 c-0.31,0.7-0.93,2.11-1.24,2.82c-8.29-2.97-16.14-7.38-24.91-8.76c-17.08-3.53-34.15-7.13-51.24-10.62 c18.17,6.24,36.48,12.1,54.71,18.16c6.89,1.46,13.95,2.08,20.91,3.21c-0.1,0.78-0.29,2.35-0.39,3.13 c-7.01-0.67-13.97-1.97-21.01-2.28c-19.02,1.14-38.06,2.02-57.07,3.37c-2.38-2-1.33-5.16-1.25-7.84c2.65-0.3,5.46-1.98,5.5-4.95 c0.26-2.69-1.99-4.48-4.19-5.42c1.01-5.12,2.33-10.18,4.06-15.1c2.67,0.5,5.9-0.51,6.63-3.4c0.95-2.51-0.79-4.73-2.65-6.15 C551.21,381.63,552.39,379.38,553.65,377.17z"/> <path class="st1" d="M676.5,409.54c16.7-10.66,33.02-21.98,49.87-32.37c1.21,2.21,2.39,4.46,3.51,6.74 c-1.81,1.42-3.57,3.55-2.7,6.03c0.68,2.97,3.94,4.07,6.68,3.55c1.71,4.92,3.04,9.97,4.06,15.09c-2.24,0.94-4.52,2.78-4.18,5.5 c0.06,2.94,2.86,4.57,5.48,4.87c-0.14,2.45,1.68,6.89-1.89,7.5c-19.12-0.67-38.21-2.26-57.33-3.03 c-6.72,0.56-13.39,1.61-20.1,2.32c-0.1-0.79-0.29-2.36-0.38-3.15c8.81-1.54,17.97-1.71,26.39-5 c16.37-5.46,32.79-10.75,49.14-16.29c-17.02,3.35-33.97,7.04-50.97,10.51c-8.86,1.32-16.75,5.85-25.12,8.77 c-0.3-0.7-0.9-2.1-1.2-2.8C663.92,414.83,670.37,412.55,676.5,409.54z"/> <path class="st1" d="M540.22,426.57c19.55,1.48,39.17,2.29,58.74,3.5c7.08-0.27,14.07-1.6,21.12-2.27 c0.11,0.78,0.32,2.35,0.42,3.13c-8.59,1.57-17.54,1.61-25.77,4.79c-16.32,5.32-32.56,10.93-48.95,16.03 c1.72-0.12,3.45-0.3,5.14-0.66c16.99-3.62,34.03-7.01,51.01-10.67c6.46-2.25,12.71-5.06,19.1-7.5c0.4,0.97,0.8,1.94,1.21,2.92 c-7.97,3.76-16.67,6.16-23.85,11.43c-14.4,9.54-28.98,18.85-43.29,28.54c17.08-8.44,34.05-17.11,51.07-25.66 c5.93-3.84,11.37-8.4,17.09-12.56c0.62,0.83,1.26,1.67,1.9,2.51c-5.44,4.57-11.36,8.56-16.59,13.37 c-12.52,14.18-25.35,28.11-37.66,42.47c14.18-12.52,28.26-25.17,42.38-37.76c4.86-5.23,8.8-11.25,13.48-16.64 c0.59,0.47,1.76,1.42,2.35,1.89c-3.92,5.63-8.35,10.89-12.17,16.57c-8.7,16.99-17.14,34.12-25.83,51.12 c8.31-11.5,15.65-23.69,23.59-35.46c3.55-5.81,8.05-11.11,10.42-17.56c1.91-4.54,3.87-9.06,5.8-13.59c0.73,0.3,2.2,0.91,2.93,1.21 c-3.03,8.4-7.52,16.37-8.85,25.29c-3.59,17.01-6.95,34.06-10.69,51.03c6.36-17.81,11.91-35.92,17.99-53.84 c1.92-7.17,2.17-14.68,3.58-21.95c0.75,0.07,2.25,0.23,3,0.31c-0.49,7.16-2,14.24-2.22,21.43c1.12,18.69,2,37.4,3.3,56.08 c1.42-18.69,2.21-37.43,3.36-56.14c-0.31-7.1-1.57-14.14-2.34-21.2c1.03-0.18,2.07-0.37,3.12-0.54 c1.68,8.59,1.64,17.57,4.84,25.81c5.64,16.67,10.8,33.51,16.73,50.07c-3.73-16.97-7.1-34.02-10.68-51.02 c-1.33-8.94-5.83-16.92-8.86-25.34c0.73-0.29,2.2-0.88,2.94-1.18c3.77,7.99,6.18,16.71,11.47,23.9 c9.5,14.2,18.51,28.74,28.29,42.73c-8.46-16.86-16.95-33.71-25.45-50.55c-3.8-5.98-8.48-11.34-12.5-17.17 c0.59-0.47,1.79-1.42,2.38-1.9c6.4,7.66,11.8,16.26,19.86,22.36c11.99,10.61,23.81,21.42,35.91,31.91 c-12.35-14.26-25.08-28.2-37.59-42.33c-5.22-4.84-11.18-8.82-16.61-13.41c0.63-0.84,1.27-1.67,1.91-2.49 c5.52,4.05,10.85,8.38,16.51,12.22c17.22,8.76,34.49,17.45,51.77,26.08c-15.73-10.63-31.73-20.87-47.57-31.35 c-6.34-3.37-13.16-5.75-19.69-8.71c0.39-0.98,0.79-1.95,1.19-2.92c6.65,2.47,13.08,5.55,19.85,7.69 c18.49,3.66,36.86,8.05,55.43,11.22c-18.11-5.81-36.12-11.97-54.23-17.79c-6.77-1.4-13.69-2.03-20.51-3.11 c0.1-0.79,0.31-2.36,0.41-3.15c9.05,0.77,18.06,3.05,27.18,2.01c17.56-1.14,35.17-1.75,52.7-3.21c-0.33,2.65-0.43,5.32-0.56,7.99 c-2.85,0.23-5.79,2.3-5.5,5.47c-0.07,2.53,2.25,3.77,4.07,4.97c-0.75,5.09-2.3,10.03-3.9,14.91c-2.35-0.16-5.16,0.19-6.29,2.58 c-1.57,2.58,0,5.6,2.28,7.1c-2.28,4.71-4.9,9.25-7.84,13.56c-2.27-0.95-5.23-1.16-6.87,1.02c-1.92,2.09-1.21,5.23,0.52,7.21 c-3.33,4-7.11,7.6-10.98,11.08c-2.15-1.69-5.47-2.52-7.56-0.27c-2.06,1.68-1.43,4.45-0.92,6.69c-4.2,3.01-8.77,5.47-13.37,7.79 c-1.51-2.09-4.2-3.79-6.78-2.47c-2.59,1.01-3.25,3.98-2.86,6.47c-4.95,1.66-9.98,3.09-15.13,3.98c-0.88-2.49-3.23-4.76-6.07-4.05 c-2.66,0.38-3.93,3.01-4.23,5.41c-5.19,0.4-10.41,0.4-15.6,0c-0.33-2.37-1.55-5-4.18-5.4c-2.85-0.74-5.24,1.51-6.11,4.02 c-5.16-0.9-10.25-2.26-15.17-4.05c0.64-2.79-0.73-6.09-3.73-6.67c-2.42-0.75-4.48,0.98-5.86,2.74c-4.7-2.26-9.18-4.94-13.55-7.78 c1.05-2.39,1.1-5.59-1.32-7.15c-2.18-1.77-5.01-0.72-7,0.75c-3.86-3.49-7.64-7.09-10.98-11.09c1.91-2.11,2.41-5.63,0.11-7.64 c-1.73-1.83-4.37-1.39-6.46-0.58c-2.94-4.33-5.58-8.86-7.84-13.58c2.26-1.48,3.8-4.45,2.32-7.02c-1.11-2.44-3.97-2.81-6.33-2.65 c-1.66-4.95-3.18-9.98-3.93-15.15c2.83-0.77,5-3.81,3.79-6.73c-0.67-2.37-3.26-2.87-5.2-3.71 C540.54,431.73,540.51,429.13,540.22,426.57z"/> </g> <g> <g> <path class="st2" d="M626.58,313.75c22.21-2.63,45.18,1.36,65.08,11.6c25.49,12.92,45.71,35.8,55.35,62.71 c8.89,24.45,8.99,51.96,0.31,76.48c-9.24,26.49-28.71,49.2-53.43,62.44c-22.42,12.16-49.01,16.32-74.09,11.75 c-33.28-5.78-63.27-27.41-79.44-57.05c-18.35-32.7-18.81-74.56-1.19-107.66C556.09,341.2,589.85,317.8,626.58,313.75z M640.01,327.17c1.07,19.61,2.27,39.21,3.32,58.82c-0.39,6.98-1.59,13.9-2.32,20.86c0.79,0.09,2.37,0.27,3.16,0.37 c1.58-8.77,1.66-17.91,4.97-26.28c5.56-16.31,10.5-32.85,16.44-49.01c-4.2,18.96-7.84,38.05-12,57.02 c-2.27,6.35-4.99,12.53-7.44,18.8c0.96,0.41,1.94,0.81,2.92,1.22c3.75-7.85,6.1-16.46,11.27-23.57 c9.57-14.45,18.91-29.06,28.61-43.43c-8.18,16.75-16.75,33.3-25.05,49.99c-3.58,6.49-9.08,11.78-12.77,18.14 c0.55,0.48,1.65,1.43,2.2,1.91c4.42-5.46,8.48-11.22,13.15-16.45c14.11-12.54,28.07-25.27,42.34-37.63 c-11.04,12.84-22.52,25.31-33.72,38.01c-5.61,7.03-13.43,11.71-20.25,17.41c0.62,0.85,1.24,1.71,1.88,2.57 c5.89-4.19,11.38-8.97,17.53-12.78c16.48-8.15,32.75-16.76,49.36-24.65c0.68-0.88,1.38-1.74,2.1-2.59 c-1.25-1.87-2.47-3.75-3.74-5.59c-2.36,1.1-5.49,1.1-7.05-1.3c-1.69-2.15-0.78-4.99,0.81-6.89c-3.4-3.96-7.12-7.64-11.03-11.08 c-1.92,1.3-4.43,2.47-6.61,1c-2.68-1.44-2.9-4.88-1.71-7.38c-4.28-2.93-8.8-5.47-13.42-7.82c-1.57,1.88-3.98,3.68-6.55,2.59 c-2.78-0.87-3.63-3.99-3.17-6.58c-4.94-1.69-9.98-3.12-15.13-3.99c-0.95,2.53-3.37,4.89-6.3,3.99c-2.6-0.49-3.66-3.14-4.13-5.44 C645.12,327.32,642.55,327.23,640.01,327.17z M632.24,327.47c-0.34,2.33-1.54,4.9-4.08,5.39c-2.92,0.86-5.35-1.48-6.3-3.99 c-2.09,0.4-4.17,0.82-6.25,1.18c-1.14,3.28,0.94,6.59,1.66,9.77c4.66,13.98,9.23,27.99,13.88,41.97 c3.08,8.13,3.11,16.97,4.68,25.44c0.79-0.09,2.36-0.28,3.15-0.37c-0.71-6.95-1.92-13.86-2.32-20.83 c1.05-19.63,2.25-39.24,3.33-58.87C637.4,327.22,634.82,327.32,632.24,327.47z M606.76,332.88c0.56,2.81-0.73,6.2-3.83,6.73 c-2.47,0.75-4.23-1.3-6-2.58c-4.69,2.06-9.03,4.83-13.3,7.62c1.12,2.51,0.96,5.93-1.7,7.39c-2.21,1.46-4.72,0.31-6.63-1 c-3.9,3.46-7.64,7.11-11.03,11.09c1.56,1.9,2.48,4.71,0.81,6.86c-1.55,2.42-4.71,2.41-7.07,1.33c-1.26,1.84-2.49,3.71-3.74,5.57 c0.74,0.86,1.42,1.8,2.32,2.53c16.67,8.3,33.29,16.69,49.89,25.11c5.78,3.85,11.17,8.27,16.77,12.37 c0.64-0.86,1.28-1.72,1.93-2.57c-5.46-4.37-11.18-8.44-16.4-13.09c-12.57-14.06-25.14-28.12-37.64-42.24 c14.26,12.01,27.89,24.79,41.92,37.09c4.94,5.27,9,11.29,13.59,16.86c0.62-0.49,1.86-1.47,2.48-1.96 c-4.14-5.84-8.86-11.28-12.66-17.35c-8.39-16.91-17.21-33.64-25.32-50.69c10.43,15.86,20.84,31.72,31.23,47.61 c3.27,6.28,5.61,13.01,8.58,19.45c0.96-0.44,1.93-0.86,2.9-1.28c-2.47-6.25-5.15-12.42-7.43-18.74 c-3.76-17.33-7.23-34.73-10.88-52.09c-0.6-2.19-1.53-4.32-1.2-6.64C611.85,331.25,609.31,332.06,606.76,332.88z M553.65,377.17 c-1.26,2.21-2.44,4.46-3.53,6.76c1.86,1.42,3.6,3.64,2.65,6.15c-0.73,2.89-3.96,3.9-6.63,3.4c-1.73,4.92-3.05,9.98-4.06,15.1 c2.2,0.94,4.45,2.73,4.19,5.42c-0.04,2.97-2.85,4.65-5.5,4.95c-0.08,2.68-1.13,5.84,1.25,7.84c19.01-1.35,38.05-2.23,57.07-3.37 c7.04,0.31,14,1.61,21.01,2.28c0.1-0.78,0.29-2.35,0.39-3.13c-6.96-1.13-14.02-1.75-20.91-3.21 c-18.23-6.06-36.54-11.92-54.71-18.16c17.09,3.49,34.16,7.09,51.24,10.62c8.77,1.38,16.62,5.79,24.91,8.76 c0.31-0.71,0.93-2.12,1.24-2.82c-6.19-2.95-12.66-5.26-18.82-8.27C586.77,398.84,570.49,387.53,553.65,377.17z M676.5,409.54 c-6.13,3.01-12.58,5.29-18.74,8.24c0.3,0.7,0.9,2.1,1.2,2.8c8.37-2.92,16.26-7.45,25.12-8.77c17-3.47,33.95-7.16,50.97-10.51 c-16.35,5.54-32.77,10.83-49.14,16.29c-8.42,3.29-17.58,3.46-26.39,5c0.09,0.79,0.28,2.36,0.38,3.15 c6.71-0.71,13.38-1.76,20.1-2.32c19.12,0.77,38.21,2.36,57.33,3.03c3.57-0.61,1.75-5.05,1.89-7.5c-2.62-0.3-5.42-1.93-5.48-4.87 c-0.34-2.72,1.94-4.56,4.18-5.5c-1.02-5.12-2.35-10.17-4.06-15.09c-2.74,0.52-6-0.58-6.68-3.55c-0.87-2.48,0.89-4.61,2.7-6.03 c-1.12-2.28-2.3-4.53-3.51-6.74C709.52,387.56,693.2,398.88,676.5,409.54z M540.22,426.57c0.29,2.56,0.32,5.16,0.54,7.74 c1.94,0.84,4.53,1.34,5.2,3.71c1.21,2.92-0.96,5.96-3.79,6.73c0.75,5.17,2.27,10.2,3.93,15.15c2.36-0.16,5.22,0.21,6.33,2.65 c1.48,2.57-0.06,5.54-2.32,7.02c2.26,4.72,4.9,9.25,7.84,13.58c2.09-0.81,4.73-1.25,6.46,0.58c2.3,2.01,1.8,5.53-0.11,7.64 c3.34,4,7.12,7.6,10.98,11.09c1.99-1.47,4.82-2.52,7-0.75c2.42,1.56,2.37,4.76,1.32,7.15c4.37,2.84,8.85,5.52,13.55,7.78 c1.38-1.76,3.44-3.49,5.86-2.74c3,0.58,4.37,3.88,3.73,6.67c4.92,1.79,10.01,3.15,15.17,4.05c0.87-2.51,3.26-4.76,6.11-4.02 c2.63,0.4,3.85,3.03,4.18,5.4c5.19,0.4,10.41,0.4,15.6,0c0.3-2.4,1.57-5.03,4.23-5.41c2.84-0.71,5.19,1.56,6.07,4.05 c5.15-0.89,10.18-2.32,15.13-3.98c-0.39-2.49,0.27-5.46,2.86-6.47c2.58-1.32,5.27,0.38,6.78,2.47c4.6-2.32,9.17-4.78,13.37-7.79 c-0.51-2.24-1.14-5.01,0.92-6.69c2.09-2.25,5.41-1.42,7.56,0.27c3.87-3.48,7.65-7.08,10.98-11.08c-1.73-1.98-2.44-5.12-0.52-7.21 c1.64-2.18,4.6-1.97,6.87-1.02c2.94-4.31,5.56-8.85,7.84-13.56c-2.28-1.5-3.85-4.52-2.28-7.1c1.13-2.39,3.94-2.74,6.29-2.58 c1.6-4.88,3.15-9.82,3.9-14.91c-1.82-1.2-4.14-2.44-4.07-4.97c-0.29-3.17,2.65-5.24,5.5-5.47c0.13-2.67,0.23-5.34,0.56-7.99 c-17.53,1.46-35.14,2.07-52.7,3.21c-9.12,1.04-18.13-1.24-27.18-2.01c-0.1,0.79-0.31,2.36-0.41,3.15 c6.82,1.08,13.74,1.71,20.51,3.11c18.11,5.82,36.12,11.98,54.23,17.79c-18.57-3.17-36.94-7.56-55.43-11.22 c-6.77-2.14-13.2-5.22-19.85-7.69c-0.4,0.97-0.8,1.94-1.19,2.92c6.53,2.96,13.35,5.34,19.69,8.71 c15.84,10.48,31.84,20.72,47.57,31.35c-17.28-8.63-34.55-17.32-51.77-26.08c-5.66-3.84-10.99-8.17-16.51-12.22 c-0.64,0.82-1.28,1.65-1.91,2.49c5.43,4.59,11.39,8.57,16.61,13.41c12.51,14.13,25.24,28.07,37.59,42.33 c-12.1-10.49-23.92-21.3-35.91-31.91c-8.06-6.1-13.46-14.7-19.86-22.36c-0.59,0.48-1.79,1.43-2.38,1.9 c4.02,5.83,8.7,11.19,12.5,17.17c8.5,16.84,16.99,33.69,25.45,50.55c-9.78-13.99-18.79-28.53-28.29-42.73 c-5.29-7.19-7.7-15.91-11.47-23.9c-0.74,0.3-2.21,0.89-2.94,1.18c3.03,8.42,7.53,16.4,8.86,25.34c3.58,17,6.95,34.05,10.68,51.02 c-5.93-16.56-11.09-33.4-16.73-50.07c-3.2-8.24-3.16-17.22-4.84-25.81c-1.05,0.17-2.09,0.36-3.12,0.54 c0.77,7.06,2.03,14.1,2.34,21.2c-1.15,18.71-1.94,37.45-3.36,56.14c-1.3-18.68-2.18-37.39-3.3-56.08 c0.22-7.19,1.73-14.27,2.22-21.43c-0.75-0.08-2.25-0.24-3-0.31c-1.41,7.27-1.66,14.78-3.58,21.95 c-6.08,17.92-11.63,36.03-17.99,53.84c3.74-16.97,7.1-34.02,10.69-51.03c1.33-8.92,5.82-16.89,8.85-25.29 c-0.73-0.3-2.2-0.91-2.93-1.21c-1.93,4.53-3.89,9.05-5.8,13.59c-2.37,6.45-6.87,11.75-10.42,17.56 c-7.94,11.77-15.28,23.96-23.59,35.46c8.69-17,17.13-34.13,25.83-51.12c3.82-5.68,8.25-10.94,12.17-16.57 c-0.59-0.47-1.76-1.42-2.35-1.89c-4.68,5.39-8.62,11.41-13.48,16.64c-14.12,12.59-28.2,25.24-42.38,37.76 c12.31-14.36,25.14-28.29,37.66-42.47c5.23-4.81,11.15-8.8,16.59-13.37c-0.64-0.84-1.28-1.68-1.9-2.51 c-5.72,4.16-11.16,8.72-17.09,12.56c-17.02,8.55-33.99,17.22-51.07,25.66c14.31-9.69,28.89-19,43.29-28.54 c7.18-5.27,15.88-7.67,23.85-11.43c-0.41-0.98-0.81-1.95-1.21-2.92c-6.39,2.44-12.64,5.25-19.1,7.5 c-16.98,3.66-34.02,7.05-51.01,10.67c-1.69,0.36-3.42,0.54-5.14,0.66c16.39-5.1,32.63-10.71,48.95-16.03 c8.23-3.18,17.18-3.22,25.77-4.79c-0.1-0.78-0.31-2.35-0.42-3.13c-7.05,0.67-14.04,2-21.12,2.27 C579.39,428.86,559.77,428.05,540.22,426.57z"/> </g> </g> <g> <path class="st3" d="M0,569c426.67,0,853.33,0,1280,0v285H0V569z"/> </g> </g> </svg>