<?xml version="1.0" encoding="UTF-8"?>
<svg viewBox="0 0 190 100" xmlns="http://www.w3.org/2000/svg">
 <path d="m0 0h190v100h-190z" fill="#c60c30"/>
 <path d="m0 0h76v53.846h-76z" fill="#002c78"/>
 <path d="m76 7.6923h114v7.6923h-114z" fill="#fff"/>
 <path d="m76 23.077h114v7.6923h-114z" fill="#fff"/>
 <path d="m76 38.462h114v7.6923h-114z" fill="#fff"/>
 <path d="m0 53.846h190v7.6923h-190z" fill="#fff"/>
 <path d="m0 69.231h190v7.6923h-190z" fill="#fff"/>
 <path d="m0 84.615h190v7.6923h-190z" fill="#fff"/>
 <path d="m5.6062 4.3839 0.72709-2.2378 0.72709 2.2378h2.3529l-1.9035 1.383 0.72709 2.2378-1.9035-1.383-1.9035 1.383 0.72709-2.2378-1.9035-1.383z" fill="#fff"/>
 <path d="m18.273 4.3839 0.72709-2.2378 0.72709 2.2378h2.3529l-1.9035 1.383 0.72709 2.2378-1.9035-1.383-1.9035 1.383 0.72709-2.2378-1.9035-1.383z" fill="#fff"/>
 <path d="m30.94 4.3839 0.72709-2.2378 0.72709 2.2378h2.3529l-1.9035 1.383 0.72709 2.2378-1.9035-1.383-1.9035 1.383 0.72709-2.2378-1.9035-1.383z" fill="#fff"/>
 <path d="m43.606 4.3839 0.72709-2.2378 0.72709 2.2378h2.3529l-1.9035 1.383 0.72709 2.2378-1.9035-1.383-1.9035 1.383 0.72709-2.2378-1.9035-1.383z" fill="#fff"/>
 <path d="m56.273 4.3839 0.72709-2.2378 0.72709 2.2378h2.3529l-1.9035 1.383 0.72709 2.2378-1.9035-1.383-1.9035 1.383 0.72709-2.2378-1.9035-1.383z" fill="#fff"/>
 <path d="m68.94 4.3839 0.72709-2.2378 0.72709 2.2378h2.3529l-1.9035 1.383 0.72709 2.2378-1.9035-1.383-1.9035 1.383 0.72709-2.2378-1.9035-1.383z" fill="#fff"/>
 <path d="m11.94 9.7685 0.72709-2.2378 0.72709 2.2378h2.3529l-1.9035 1.383 0.72709 2.2378-1.9035-1.383-1.9035 1.383 0.72709-2.2378-1.9035-1.383z" fill="#fff"/>
 <path d="m24.606 9.7685 0.72709-2.2378 0.72709 2.2378h2.3529l-1.9035 1.383 0.72709 2.2378-1.9035-1.383-1.9035 1.383 0.72709-2.2378-1.9035-1.383z" fill="#fff"/>
 <path d="m37.273 9.7685 0.72709-2.2378 0.72709 2.2378h2.3529l-1.9035 1.383 0.72709 2.2378-1.9035-1.383-1.9035 1.383 0.72709-2.2378-1.9035-1.383z" fill="#fff"/>
 <path d="m49.94 9.7685 0.72709-2.2378 0.72709 2.2378h2.3529l-1.9035 1.383 0.72709 2.2378-1.9035-1.383-1.9035 1.383 0.72709-2.2378-1.9035-1.383z" fill="#fff"/>
 <path d="m62.606 9.7685 0.72709-2.2378 0.72709 2.2378h2.3529l-1.9035 1.383 0.72709 2.2378-1.9035-1.383-1.9035 1.383 0.72709-2.2378-1.9035-1.383z" fill="#fff"/>
 <path d="m5.6062 15.153 0.72709-2.2378 0.72709 2.2378h2.3529l-1.9035 1.383 0.72709 2.2378-1.9035-1.383-1.9035 1.383 0.72709-2.2378-1.9035-1.383z" fill="#fff"/>
 <path d="m18.273 15.153 0.72709-2.2378 0.72709 2.2378h2.3529l-1.9035 1.383 0.72709 2.2378-1.9035-1.383-1.9035 1.383 0.72709-2.2378-1.9035-1.383z" fill="#fff"/>
 <path d="m30.94 15.153 0.72709-2.2378 0.72709 2.2378h2.3529l-1.9035 1.383 0.72709 2.2378-1.9035-1.383-1.9035 1.383 0.72709-2.2378-1.9035-1.383z" fill="#fff"/>
 <path d="m43.606 15.153 0.72709-2.2378 0.72709 2.2378h2.3529l-1.9035 1.383 0.72709 2.2378-1.9035-1.383-1.9035 1.383 0.72709-2.2378-1.9035-1.383z" fill="#fff"/>
 <path d="m56.273 15.153 0.72709-2.2378 0.72709 2.2378h2.3529l-1.9035 1.383 0.72709 2.2378-1.9035-1.383-1.9035 1.383 0.72709-2.2378-1.9035-1.383z" fill="#fff"/>
 <path d="m68.94 15.153 0.72709-2.2378 0.72709 2.2378h2.3529l-1.9035 1.383 0.72709 2.2378-1.9035-1.383-1.9035 1.383 0.72709-2.2378-1.9035-1.383z" fill="#fff"/>
 <path d="m11.94 20.538 0.72709-2.2378 0.72709 2.2378h2.3529l-1.9035 1.383 0.72709 2.2378-1.9035-1.383-1.9035 1.383 0.72709-2.2378-1.9035-1.383z" fill="#fff"/>
 <path d="m24.606 20.538 0.72709-2.2378 0.72709 2.2378h2.3529l-1.9035 1.383 0.72709 2.2378-1.9035-1.383-1.9035 1.383 0.72709-2.2378-1.9035-1.383z" fill="#fff"/>
 <path d="m37.273 20.538 0.72709-2.2378 0.72709 2.2378h2.3529l-1.9035 1.383 0.72709 2.2378-1.9035-1.383-1.9035 1.383 0.72709-2.2378-1.9035-1.383z" fill="#fff"/>
 <path d="m49.94 20.538 0.72709-2.2378 0.72709 2.2378h2.3529l-1.9035 1.383 0.72709 2.2378-1.9035-1.383-1.9035 1.383 0.72709-2.2378-1.9035-1.383z" fill="#fff"/>
 <path d="m62.606 20.538 0.72709-2.2378 0.72709 2.2378h2.3529l-1.9035 1.383 0.72709 2.2378-1.9035-1.383-1.9035 1.383 0.72709-2.2378-1.9035-1.383z" fill="#fff"/>
 <path d="m5.6062 25.922 0.72709-2.2378 0.72709 2.2378h2.3529l-1.9035 1.383 0.72709 2.2378-1.9035-1.383-1.9035 1.383 0.72709-2.2378-1.9035-1.383z" fill="#fff"/>
 <path d="m18.273 25.922 0.72709-2.2378 0.72709 2.2378h2.3529l-1.9035 1.383 0.72709 2.2378-1.9035-1.383-1.9035 1.383 0.72709-2.2378-1.9035-1.383z" fill="#fff"/>
 <path d="m30.94 25.922 0.72709-2.2378 0.72709 2.2378h2.3529l-1.9035 1.383 0.72709 2.2378-1.9035-1.383-1.9035 1.383 0.72709-2.2378-1.9035-1.383z" fill="#fff"/>
 <path d="m43.606 25.922 0.72709-2.2378 0.72709 2.2378h2.3529l-1.9035 1.383 0.72709 2.2378-1.9035-1.383-1.9035 1.383 0.72709-2.2378-1.9035-1.383z" fill="#fff"/>
 <path d="m56.273 25.922 0.72709-2.2378 0.72709 2.2378h2.3529l-1.9035 1.383 0.72709 2.2378-1.9035-1.383-1.9035 1.383 0.72709-2.2378-1.9035-1.383z" fill="#fff"/>
 <path d="m68.94 25.922 0.72709-2.2378 0.72709 2.2378h2.3529l-1.9035 1.383 0.72709 2.2378-1.9035-1.383-1.9035 1.383 0.72709-2.2378-1.9035-1.383z" fill="#fff"/>
 <path d="m11.94 31.307 0.72709-2.2378 0.72709 2.2378h2.3529l-1.9035 1.383 0.72709 2.2378-1.9035-1.383-1.9035 1.383 0.72709-2.2378-1.9035-1.383z" fill="#fff"/>
 <path d="m24.606 31.307 0.72709-2.2378 0.72709 2.2378h2.3529l-1.9035 1.383 0.72709 2.2378-1.9035-1.383-1.9035 1.383 0.72709-2.2378-1.9035-1.383z" fill="#fff"/>
 <path d="m37.273 31.307 0.72709-2.2378 0.72709 2.2378h2.3529l-1.9035 1.383 0.72709 2.2378-1.9035-1.383-1.9035 1.383 0.72709-2.2378-1.9035-1.383z" fill="#fff"/>
 <path d="m49.94 31.307 0.72709-2.2378 0.72709 2.2378h2.3529l-1.9035 1.383 0.72709 2.2378-1.9035-1.383-1.9035 1.383 0.72709-2.2378-1.9035-1.383z" fill="#fff"/>
 <path d="m62.606 31.307 0.72709-2.2378 0.72709 2.2378h2.3529l-1.9035 1.383 0.72709 2.2378-1.9035-1.383-1.9035 1.383 0.72709-2.2378-1.9035-1.383z" fill="#fff"/>
 <path d="m5.6062 36.692 0.72709-2.2378 0.72709 2.2378h2.3529l-1.9035 1.383 0.72709 2.2378-1.9035-1.383-1.9035 1.383 0.72709-2.2378-1.9035-1.383z" fill="#fff"/>
 <path d="m18.273 36.692 0.72709-2.2378 0.72709 2.2378h2.3529l-1.9035 1.383 0.72709 2.2378-1.9035-1.383-1.9035 1.383 0.72709-2.2378-1.9035-1.383z" fill="#fff"/>
 <path d="m30.94 36.692 0.72709-2.2378 0.72709 2.2378h2.3529l-1.9035 1.383 0.72709 2.2378-1.9035-1.383-1.9035 1.383 0.72709-2.2378-1.9035-1.383z" fill="#fff"/>
 <path d="m43.606 36.692 0.72709-2.2378 0.72709 2.2378h2.3529l-1.9035 1.383 0.72709 2.2378-1.9035-1.383-1.9035 1.383 0.72709-2.2378-1.9035-1.383z" fill="#fff"/>
 <path d="m56.273 36.692 0.72709-2.2378 0.72709 2.2378h2.3529l-1.9035 1.383 0.72709 2.2378-1.9035-1.383-1.9035 1.383 0.72709-2.2378-1.9035-1.383z" fill="#fff"/>
 <path d="m68.94 36.692 0.72709-2.2378 0.72709 2.2378h2.3529l-1.9035 1.383 0.72709 2.2378-1.9035-1.383-1.9035 1.383 0.72709-2.2378-1.9035-1.383z" fill="#fff"/>
 <path d="m11.94 42.076 0.72709-2.2378 0.72709 2.2378h2.3529l-1.9035 1.383 0.72709 2.2378-1.9035-1.383-1.9035 1.383 0.72709-2.2378-1.9035-1.383z" fill="#fff"/>
 <path d="m24.606 42.076 0.72709-2.2378 0.72709 2.2378h2.3529l-1.9035 1.383 0.72709 2.2378-1.9035-1.383-1.9035 1.383 0.72709-2.2378-1.9035-1.383z" fill="#fff"/>
 <path d="m37.273 42.076 0.72709-2.2378 0.72709 2.2378h2.3529l-1.9035 1.383 0.72709 2.2378-1.9035-1.383-1.9035 1.383 0.72709-2.2378-1.9035-1.383z" fill="#fff"/>
 <path d="m49.94 42.076 0.72709-2.2378 0.72709 2.2378h2.3529l-1.9035 1.383 0.72709 2.2378-1.9035-1.383-1.9035 1.383 0.72709-2.2378-1.9035-1.383z" fill="#fff"/>
 <path d="m62.606 42.076 0.72709-2.2378 0.72709 2.2378h2.3529l-1.9035 1.383 0.72709 2.2378-1.9035-1.383-1.9035 1.383 0.72709-2.2378-1.9035-1.383z" fill="#fff"/>
 <path d="m5.6062 47.461 0.72709-2.2378 0.72709 2.2378h2.3529l-1.9035 1.383 0.72709 2.2378-1.9035-1.383-1.9035 1.383 0.72709-2.2378-1.9035-1.383z" fill="#fff"/>
 <path d="m18.273 47.461 0.72709-2.2378 0.72709 2.2378h2.3529l-1.9035 1.383 0.72709 2.2378-1.9035-1.383-1.9035 1.383 0.72709-2.2378-1.9035-1.383z" fill="#fff"/>
 <path d="m30.94 47.461 0.72709-2.2378 0.72709 2.2378h2.3529l-1.9035 1.383 0.72709 2.2378-1.9035-1.383-1.9035 1.383 0.72709-2.2378-1.9035-1.383z" fill="#fff"/>
 <path d="m43.606 47.461 0.72709-2.2378 0.72709 2.2378h2.3529l-1.9035 1.383 0.72709 2.2378-1.9035-1.383-1.9035 1.383 0.72709-2.2378-1.9035-1.383z" fill="#fff"/>
 <path d="m56.273 47.461 0.72709-2.2378 0.72709 2.2378h2.3529l-1.9035 1.383 0.72709 2.2378-1.9035-1.383-1.9035 1.383 0.72709-2.2378-1.9035-1.383z" fill="#fff"/>
 <path d="m68.94 47.461 0.72709-2.2378 0.72709 2.2378h2.3529l-1.9035 1.383 0.72709 2.2378-1.9035-1.383-1.9035 1.383 0.72709-2.2378-1.9035-1.383z" fill="#fff"/>
</svg>
